<?xml version="1.0" encoding="UTF-8" standalone="no"?>
<!DOCTYPE svg PUBLIC "-//W3C//DTD SVG 1.1//EN" "http://www.w3.org/Graphics/SVG/1.1/DTD/svg11.dtd">
<svg width="256" height="256" viewBox="0 0 512 512" version="1.1" xmlns="http://www.w3.org/2000/svg" xmlns:xlink="http://www.w3.org/1999/xlink" xml:space="preserve" xmlns:serif="http://www.serif.com/" style="fill-rule:evenodd;clip-rule:evenodd;stroke-linejoin:round;stroke-miterlimit:2;">
    <circle cx="256" cy="256" r="256" fill="#46d8ae" shape="circle"/>
    <g transform="matrix(.69 0 0 .69 79.36 74.36)" fill="#e40015">
        <path class="" d="M448 10.667A10.66 10.66 0 0 0 437.333 0H106.667C83.135 0 64 19.135 64 42.667v426.667C64 492.865 83.135 512 106.667 512h330.667a10.664 10.664 0 0 0 8.875-16.583c-10.563-15.844-10.563-36.323 0-52.167l-.161-.108c1.133-1.694 1.953-3.615 1.953-5.809V10.667zm-27.625 480H106.667c-11.76 0-21.333-9.573-21.333-21.333 0-11.76 9.573-21.333 21.333-21.333h313.967c-4.587 13.873-4.838 28.793-.259 42.666zm6.292-64h-320a42.372 42.372 0 0 0-21.333 5.729V42.667c0-11.76 9.573-21.333 21.333-21.333h320v405.333z" data-original="#000000"/>
        <path class="" d="M170.667 245.115v64.219c0 17.646 14.354 32 32 32h106.667c17.646 0 32-14.354 32-32v-64.219c13.292-10.021 21.333-25.771 21.333-42.448 0-32.642-30.615-58.119-63.12-51.938C289.885 137.025 274.004 128 256 128c-18.005 0-33.888 9.026-43.549 22.732-32.549-6.19-63.126 19.29-63.117 51.935-.001 16.677 8.041 32.427 21.333 42.448zM320 309.333c0 5.885-4.781 10.667-10.667 10.667H202.667c-5.885 0-10.667-4.781-10.667-10.667v-10.667h128v10.667zM203.728 170.845a53.326 53.326 0 0 0-1.061 10.488A10.66 10.66 0 0 0 213.334 192a10.66 10.66 0 0 0 10.667-10.667c0-17.646 14.354-32 32-32s32 14.354 32 32A10.66 10.66 0 0 0 298.668 192a10.66 10.66 0 0 0 10.667-10.667c0-3.59-.381-7.091-1.061-10.484 18.083-.893 33.07 13.839 33.061 31.818 0 11.396-5.99 21.688-16.031 27.531a10.685 10.685 0 0 0-5.302 9.219v37.917H192v-37.917c0-3.792-2.021-7.302-5.302-9.219-10.042-5.844-16.031-16.135-16.031-27.531 0-17.982 14.962-32.724 33.061-31.822z" data-original="#000000"/>
    </g>
</svg>