<svg version="1.1" id="Layer_1" xmlns="http://www.w3.org/2000/svg" xmlns:xlink="http://www.w3.org/1999/xlink" x="0px" y="0px"
	 width="100%" viewBox="0 0 800 1024" enable-background="new 0 0 800 1024" xml:space="preserve">
<path fill="#000000" opacity="1.000000" stroke="none" 
	d="
M39.828247,377.003784 
	C49.330101,349.130768 63.690945,324.575775 83.378197,303.167725 
	C106.465202,278.062775 135.311127,262.735413 167.361237,252.087891 
	C202.019196,240.574005 237.417114,239.414505 273.445221,240.272842 
	C303.920441,240.998917 331.964600,250.590256 360.342194,259.638702 
	C370.815125,262.978088 381.261353,266.404266 391.768127,269.633392 
	C396.858643,271.197876 398.030975,270.422791 398.665924,265.193542 
	C401.121399,244.971268 405.355499,225.149551 411.588074,205.747742 
	C413.159119,200.857147 412.543976,200.217163 406.866638,200.198044 
	C375.510559,200.092438 344.268677,197.798599 313.344971,192.912659 
	C278.825287,187.458572 245.155930,178.825912 214.951294,160.046722 
	C182.810043,140.063492 157.779495,113.413048 139.673233,80.248840 
	C131.761322,65.757042 133.988098,59.200138 149.027802,52.375187 
	C164.511749,45.348633 181.005676,41.677700 197.766388,40.133060 
	C234.438843,36.753384 270.457672,40.032974 305.861572,51.107292 
	C358.348175,67.525070 397.701385,100.470581 428.024445,145.361618 
	C429.516663,147.570709 430.952362,149.818008 432.445526,152.026443 
	C435.525787,156.582123 436.247345,156.590576 439.463379,152.178452 
	C449.833130,137.952271 461.784637,125.235268 475.891846,114.665916 
	C488.117401,105.506294 501.485840,98.430435 516.139832,93.981644 
	C524.176270,91.541885 531.468872,94.756187 534.508972,101.733337 
	C537.576782,108.774155 535.099182,115.325966 527.596252,119.832245 
	C526.030334,120.772751 524.407166,121.684311 522.701782,122.316238 
	C493.306122,133.208908 473.113159,154.650574 456.643799,180.215149 
	C440.891388,204.666855 433.779053,232.177750 429.304535,260.485260 
	C427.674530,270.797424 428.088654,270.951324 438.228058,267.706329 
	C460.750488,260.498230 483.177032,252.995743 505.912537,246.456024 
	C525.888672,240.709976 546.414551,238.583710 566.993713,236.928085 
	C582.594971,235.672928 598.210144,235.659821 613.893433,236.520065 
	C634.035828,237.624878 652.365723,244.115707 669.952026,253.187149 
	C709.350464,273.509766 736.723267,305.556335 757.125732,344.081543 
	C775.091309,378.005280 785.684753,414.279877 790.418579,452.321686 
	C793.724182,478.885529 792.367859,505.490509 791.491089,532.117493 
	C790.466675,563.229248 785.292053,593.701782 778.217224,623.902527 
	C760.588867,699.153503 730.763184,768.951355 682.295349,829.612183 
	C655.222900,863.495178 624.890076,894.523865 588.268982,918.594666 
	C572.841797,928.734802 556.676514,937.100098 538.079346,939.896057 
	C524.116455,941.995361 510.222473,941.363831 496.258911,940.026489 
	C471.686737,937.673279 447.719330,931.607300 423.288971,928.412354 
	C412.288391,926.973755 401.735291,929.799011 391.159607,931.905273 
	C365.155243,937.084534 339.051361,940.802979 312.454376,941.503174 
	C284.369904,942.242432 258.974548,934.547424 234.924088,920.630859 
	C201.814560,901.472290 173.611084,876.516724 148.084961,848.332214 
	C97.691948,792.691345 62.352364,728.467041 40.511364,656.867371 
	C29.956261,622.265442 22.458857,587.018738 21.421621,550.515259 
	C20.678690,524.369263 19.531260,498.216675 20.902321,472.118408 
	C22.497410,441.755737 28.329432,412.023651 37.898960,383.093262 
	C38.526264,381.196777 39.118675,379.288788 39.828247,377.003784 
M169.493240,828.022644 
	C190.134964,850.862305 212.541763,871.728760 238.673203,888.196533 
	C253.756531,897.701965 269.138519,906.903870 287.079712,910.155701 
	C298.954102,912.307922 310.911743,911.648987 322.927246,911.071594 
	C345.297119,909.996582 367.347626,906.948792 389.125977,901.922791 
	C402.738251,898.781311 416.414825,897.545532 430.264465,899.406311 
	C456.313202,902.905884 481.891327,909.462158 508.200348,911.330505 
	C521.966675,912.308044 535.453735,911.821533 548.424316,906.331787 
	C562.813416,900.241760 575.925110,891.978088 588.143372,882.427246 
	C634.196899,846.428223 670.948975,802.472473 698.807190,751.136047 
	C719.565002,712.884033 734.712769,672.421936 745.863037,630.373840 
	C753.261108,602.475647 758.796753,574.242432 761.496765,545.545837 
	C763.776733,521.313171 763.064880,496.988831 762.067932,472.659180 
	C761.008423,446.804901 756.175049,421.863281 747.863892,397.391663 
	C735.371277,360.608337 716.602051,327.908356 687.667053,301.535217 
	C667.654175,283.294342 645.006714,269.718170 617.716064,266.625275 
	C591.296326,263.631134 564.808289,265.458496 538.594727,269.861420 
	C510.083801,274.650238 482.737671,283.772919 455.409973,292.924164 
	C440.379211,297.957581 425.201752,302.643829 409.098907,302.135803 
	C394.293579,301.668701 380.246552,297.422699 366.322174,292.734589 
	C336.184723,282.587891 306.214233,272.066315 274.007812,269.914856 
	C240.563324,267.680695 207.810547,270.613617 175.732544,280.339630 
	C147.935013,288.767761 123.237305,302.534180 103.835594,324.493896 
	C69.551094,363.298584 56.090649,410.437622 51.505104,460.581848 
	C49.551781,481.941956 49.796192,503.538269 50.478233,525.024719 
	C50.985226,540.996643 50.733654,557.018066 52.454742,572.931885 
	C54.785789,594.485718 59.859238,615.487061 65.370155,636.419800 
	C84.365471,708.571716 119.969818,771.668091 169.493240,828.022644 
M350.104309,105.414917 
	C344.624573,101.941185 339.316650,98.153198 333.635956,95.046951 
	C305.903198,79.882523 276.221924,71.148483 244.647003,69.518051 
	C222.532654,68.376129 200.371063,67.631340 178.618820,73.466248 
	C171.467209,75.384636 170.874298,76.399727 175.182861,82.194977 
	C201.615021,117.747604 234.961685,143.492432 278.336365,155.169922 
	C318.317871,165.933884 359.093353,169.892746 400.354767,169.908035 
	C402.270935,169.908752 404.380035,170.260437 406.894745,167.907639 
	C392.166870,143.665588 374.033752,122.457657 350.104309,105.414917 
z"/>
</svg>