<?xml version="1.0" encoding="UTF-8"?>
<svg width="24" height="24" viewBox="0 0 24 24" fill="none" xmlns="http://www.w3.org/2000/svg">
<path d="M19 6C17.9 6 17 6.9 17 8C17 8.5 17.2 8.97 17.5 9.33C16.84 9.12 16.14 9 15.41 9C13.04 9 10.96 10.19 9.71 12C8.46 10.19 6.38 9 4.01 9C3.28 9 2.58 9.12 1.92 9.33C2.22 8.97 2.42 8.5 2.42 8C2.42 6.9 1.52 6 0.42 6C0.19 6 0 6.19 0 6.42V17.58C0 17.81 0.19 18 0.42 18C1.52 18 2.42 17.1 2.42 16C2.42 15.5 2.22 15.03 1.92 14.67C2.58 14.88 3.28 15 4.01 15C6.38 15 8.46 13.81 9.71 12C10.96 13.81 13.04 15 15.41 15C16.14 15 16.84 14.88 17.5 14.67C17.2 15.03 17 15.5 17 16C17 17.1 17.9 18 19 18C19.23 18 19.42 17.81 19.42 17.58V6.42C19.42 6.19 19.23 6 19 6ZM4.01 13C2.35 13 1 11.65 1 10C1 8.35 2.35 7 4.01 7C5.67 7 7.02 8.35 7.02 10C7.02 11.65 5.67 13 4.01 13ZM15.41 13C13.75 13 12.4 11.65 12.4 10C12.4 8.35 13.75 7 15.41 7C17.07 7 18.42 8.35 18.42 10C18.42 11.65 17.07 13 15.41 13Z" fill="currentColor"/>
</svg>

