<svg width="24" height="24" viewBox="0 0 24 24" fill="none" xmlns="http://www.w3.org/2000/svg">
<path d="M10 2C9.46272 2 9.00693 2.39167 8.94109 2.92318L7.00001 17.0001C6.91266 17.653 7.39137 18.2528 8.04432 18.3402C8.24354 18.3669 8.44111 18.3182 8.61483 18.1994L16.9039 12.378C17.4721 11.9796 17.5898 11.2014 17.1914 10.6332C16.8927 10.2014 16.3575 9.94056 15.7725 9.91494L11.7725 9.73494L12.0001 7.77242C12.0911 7.14723 11.6625 6.56847 11.0373 6.4774C10.829 6.44754 10.6272 6.5029 10.4578 6.63464L8.35649 8.16912L9.00001 3.00001C9.07693 2.37682 9.53728 2 10 2ZM11.0001 4.5L10.5976 7.68065L12.5539 7.60481L11.0001 4.5ZM8.59765 10.3194L15.394 10.0211L8.59765 10.3194ZM8.44633 11.8385L15.751 12.0118L9.04901 17.8441L8.44633 11.8385ZM10.0001 20L10.0001 20Z" stroke="currentColor" stroke-width="1.5" stroke-linecap="round" stroke-linejoin="round"/></svg>