<?xml version="1.0" encoding="UTF-8"?>
<svg width="24" height="24" viewBox="0 0 24 24" fill="none" xmlns="http://www.w3.org/2000/svg">
<path d="M4 10L12 3L20 10V20H4V10ZM6 12V18H18V12L12 6.5L6 12ZM9 14C9.55 14 10 14.45 10 15C10 15.55 9.55 16 9 16C8.45 16 8 15.55 8 15C8 14.45 8.45 14 9 14ZM13 13C13.55 13 14 13.45 14 14C14 14.55 13.55 15 13 15C12.45 15 12 14.55 12 14C12 13.45 12.45 13 13 13ZM15 16C15.55 16 16 16.45 16 17C16 17.55 15.55 18 15 18C14.45 18 14 17.55 14 17C14 16.45 14.45 16 15 16Z" fill="currentColor"/>
</svg>

