<?xml version="1.0" encoding="UTF-8"?>
<svg width="24" height="24" viewBox="0 0 24 24" fill="none" xmlns="http://www.w3.org/2000/svg">
<path d="M12 2C9.24 2 7 4.24 7 7C7 8.5 7.65 9.85 8.67 10.83C7.65 11.81 7 13.16 7 14.67V17C7 19.76 9.24 22 12 22C14.76 22 17 19.76 17 17V14.67C17 13.16 16.35 11.81 15.33 10.83C16.35 9.85 17 8.5 17 7C17 4.24 14.76 2 12 2ZM12 4C13.66 4 15 5.34 15 7C15 8.66 13.66 10 12 10C10.34 10 9 8.66 9 7C9 5.34 10.34 4 12 4ZM12 12C13.66 12 15 13.34 15 15V17C15 18.66 13.66 20 12 20C10.34 20 9 18.66 9 17V15C9 13.34 10.34 12 12 12Z" fill="currentColor"/>
</svg>

