<?xml version="1.0" encoding="UTF-8"?>
<svg width="24" height="24" viewBox="0 0 24 24" fill="none" xmlns="http://www.w3.org/2000/svg">
<path d="M18.5 11C18.5 9.62 17.88 8.38 16.91 7.56C16.96 7.21 17 6.86 17 6.5C17 3.46 14.54 1 11.5 1C8.46 1 6 3.46 6 6.5C6 6.86 6.04 7.21 6.09 7.56C5.12 8.38 4.5 9.62 4.5 11C4.5 13.21 6.29 15 8.5 15H9V17C9 18.1 9.9 19 11 19H12C13.1 19 14 18.1 14 17V15H14.5C16.71 15 18.5 13.21 18.5 11ZM11.5 3C13.43 3 15 4.57 15 6.5C15 6.67 14.98 6.84 14.95 7H8.05C8.02 6.84 8 6.67 8 6.5C8 4.57 9.57 3 11.5 3ZM8.5 13C7.4 13 6.5 12.1 6.5 11C6.5 9.9 7.4 9 8.5 9H14.5C15.6 9 16.5 9.9 16.5 11C16.5 12.1 15.6 13 14.5 13H8.5ZM12 17H11V15H12V17ZM7 21H16V23H7V21Z" fill="currentColor"/>
</svg>

