<?xml version="1.0" encoding="UTF-8"?>
<svg class="" width="512" height="512" enable-background="new 0 0 512 512" version="1.1" viewBox="0 0 329.27 329" xml:space="preserve" xmlns="http://www.w3.org/2000/svg"><path d="m194.8 164.77 128.21-128.22c8.343-8.34 8.343-21.825 0-30.164-8.34-8.34-21.825-8.34-30.164 0l-128.22 128.21-128.21-128.21c-8.344-8.34-21.824-8.34-30.164 0-8.344 8.34-8.344 21.824 0 30.164l128.21 128.22-128.21 128.21c-8.344 8.34-8.344 21.825 0 30.164a21.266 21.266 0 0 0 15.082 6.25c5.46 0 10.922-2.09 15.082-6.25l128.21-128.21 128.22 128.21a21.273 21.273 0 0 0 15.082 6.25c5.46 0 10.922-2.09 15.082-6.25 8.343-8.34 8.343-21.824 0-30.164z" data-original="#000000"/></svg>
