<?xml version="1.0" encoding="UTF-8"?>
<svg class="" width="512" height="512" enable-background="new 0 0 512 512" version="1.1" viewBox="0 0 682.67 682.67" xml:space="preserve" xmlns="http://www.w3.org/2000/svg"><defs><clipPath id="a"><path d="M0 512h512V0H0Z" data-original="#000000"/></clipPath></defs><path class="" transform="matrix(1.3333 0 0 -1.3333 297.44 152.2)" d="m0 0h171.3" fill="none" stroke="#000" stroke-linecap="round" stroke-linejoin="round" stroke-miterlimit="10" stroke-width="15" data-original="#000000"/><path class="" transform="matrix(1.3333 0 0 -1.3333 297.44 205.06)" d="m0 0h171.3" fill="none" stroke="#000" stroke-linecap="round" stroke-linejoin="round" stroke-miterlimit="10" stroke-width="15" data-original="#000000"/><g transform="matrix(1.3333 0 0 -1.3333 0 682.67)" clip-path="url(#a)"><path class="" transform="translate(142.15 7.5)" d="m0 0v497" fill="#000" stroke="#000" stroke-linecap="round" stroke-linejoin="round" stroke-miterlimit="10" stroke-width="15" data-original="#000000"/><path class="" transform="translate(88.311 179.64)" d="m0 0h-41.257c-9.886 0-17.899 8.014-17.899 17.899s8.013 17.899 17.899 17.899h41.257c9.886 0 17.899-8.014 17.899-17.899s-8.013-17.899-17.899-17.899z" fill="#000" stroke="#000" stroke-linecap="round" stroke-linejoin="round" stroke-miterlimit="10" stroke-width="15" data-original="#000000"/><path class="" transform="translate(88.311 62.718)" d="M0 0h-41.257c-9.886 0-17.899 8.014-17.899 17.899v0c0 9.886 8.013 17.899 17.899 17.899H0c9.886 0 17.899-8.013 17.899-17.899v0C17.899 8.014 9.886 0 0 0Z" fill="#000" stroke="#000" stroke-linecap="round" stroke-linejoin="round" stroke-miterlimit="10" stroke-width="15" data-original="#000000"/><path class="" transform="translate(88.311 413.48)" d="M0 0h-41.257c-9.886 0-17.899 8.014-17.899 17.899v0c0 9.886 8.013 17.899 17.899 17.899H0c9.886 0 17.899-8.013 17.899-17.899v0C17.899 8.014 9.886 0 0 0Z" fill="#000" stroke="#000" stroke-linecap="round" stroke-linejoin="round" stroke-miterlimit="10" stroke-width="15" data-original="#000000"/><path class="" transform="translate(88.311 296.56)" d="m0 0h-41.257c-9.886 0-17.899 8.014-17.899 17.899s8.013 17.899 17.899 17.899h41.257c9.886 0 17.899-8.014 17.899-17.899s-8.013-17.899-17.899-17.899z" fill="#000" stroke="#000" stroke-linecap="round" stroke-linejoin="round" stroke-miterlimit="10" stroke-width="15" data-original="#000000"/><path class="" transform="translate(67.683 215.44)" d="m0 0v81.124" fill="#000" stroke="#000" stroke-linecap="round" stroke-linejoin="round" stroke-miterlimit="10" stroke-width="15" data-original="#000000"/><path class="" transform="translate(67.683 98.516)" d="m0 0v81.124" fill="#000" stroke="#000" stroke-linecap="round" stroke-linejoin="round" stroke-miterlimit="10" stroke-width="15" data-original="#000000"/><path class="" transform="translate(67.683 389.26)" d="m0 0v24.219" fill="#000" stroke="#000" stroke-linecap="round" stroke-linejoin="round" stroke-miterlimit="10" stroke-width="15" data-original="#000000"/><path class="" transform="translate(67.683 332.36)" d="m0 0v24.219" fill="#000" stroke="#000" stroke-linecap="round" stroke-linejoin="round" stroke-miterlimit="10" stroke-width="15" data-original="#000000"/><path class="" transform="translate(260.47 308.63)" d="M0 0h162.278a5 5 0 0 1 5 5v131.378a5 5 0 0 1-5 5H-65.761c-2.76 0-5-2.239-5-5V5a5 5 0 0 1 5-5h33.075" fill="#000" stroke="#000" stroke-linecap="round" stroke-linejoin="round" stroke-miterlimit="10" stroke-width="15" data-original="#000000"/><path class="" transform="translate(482.84 129.25)" d="m0 0v-96.749c0-13.807-11.193-25-25-25h-365.16c-13.807 0-25 11.193-25 25v30.218" fill="#000" stroke="#000" stroke-linecap="round" stroke-linejoin="round" stroke-miterlimit="10" stroke-width="15" data-original="#000000"/><path class="" transform="translate(67.683 449.28)" d="m0 0v30.218c0 13.807 11.193 25 25 25h365.16c13.807 0 25-11.193 25-25v-317.56" fill="#000" stroke="#000" stroke-linecap="round" stroke-linejoin="round" stroke-miterlimit="10" stroke-width="15" data-original="#000000"/></g></svg>

