<?xml version="1.0" encoding="UTF-8"?>
<svg width="24" height="24" viewBox="0 0 24 24" fill="none" xmlns="http://www.w3.org/2000/svg">
<path d="M12 2C9.24 2 7 4.24 7 7C7 7.7 7.13 8.37 7.36 9H2V11H7.36C7.13 11.63 7 12.3 7 13C7 15.76 9.24 18 12 18C14.76 18 17 15.76 17 13C17 12.3 16.87 11.63 16.64 11H22V9H16.64C16.87 8.37 17 7.7 17 7C17 4.24 14.76 2 12 2ZM12 4C13.66 4 15 5.34 15 7C15 8.66 13.66 10 12 10C10.34 10 9 8.66 9 7C9 5.34 10.34 4 12 4ZM12 12C13.66 12 15 13.34 15 15C15 16.66 13.66 18 12 18C10.34 18 9 16.66 9 15C9 13.34 10.34 12 12 12ZM12 14C11.45 14 11 14.45 11 15C11 15.55 11.45 16 12 16C12.55 16 13 15.55 13 15C13 14.45 12.55 14 12 14ZM3 20V22H21V20H3Z" fill="currentColor"/>
</svg>

