<?xml version="1.0" encoding="UTF-8"?>
<svg width="24" height="24" viewBox="0 0 24 24" fill="none" xmlns="http://www.w3.org/2000/svg">
<path d="M12 2C10.9 2 10 2.9 10 4V6C8.34 6 7 7.34 7 9V11C7 12.66 8.34 14 10 14V16C10 17.1 10.9 18 12 18C13.1 18 14 17.1 14 16V14C15.66 14 17 12.66 17 11V9C17 7.34 15.66 6 14 6V4C14 2.9 13.1 2 12 2ZM12 4C12.55 4 13 4.45 13 5V6H11V5C11 4.45 11.45 4 12 4ZM10 8H14C14.55 8 15 8.45 15 9V11C15 11.55 14.55 12 14 12H13V16C13 16.55 12.55 17 12 17C11.45 17 11 16.55 11 16V12H10C9.45 12 9 11.55 9 11V9C9 8.45 9.45 8 10 8ZM8 16C7.45 16 7 16.45 7 17V20C7 20.55 7.45 21 8 21C8.55 21 9 20.55 9 20V17C9 16.45 8.55 16 8 16ZM16 16C15.45 16 15 16.45 15 17V20C15 20.55 15.45 21 16 21C16.55 21 17 20.55 17 20V17C17 16.45 16.55 16 16 16Z" fill="currentColor"/>
</svg>

