<?xml version="1.0" encoding="UTF-8"?>
<svg width="24" height="24" viewBox="0 0 24 24" fill="none" xmlns="http://www.w3.org/2000/svg">
<path d="M12 2C10.34 2 9 3.34 9 5V7C7.34 7 6 8.34 6 10V12C6 13.66 7.34 15 9 15V18C9 19.66 10.34 21 12 21C13.66 21 15 19.66 15 18V15C16.66 15 18 13.66 18 12V10C18 8.34 16.66 7 15 7V5C15 3.34 13.66 2 12 2ZM12 4C12.55 4 13 4.45 13 5V7H11V5C11 4.45 11.45 4 12 4ZM9 9H15C15.55 9 16 9.45 16 10V12C16 12.55 15.55 13 15 13H13V18C13 18.55 12.55 19 12 19C11.45 19 11 18.55 11 18V13H9C8.45 13 8 12.55 8 12V10C8 9.45 8.45 9 9 9Z" fill="currentColor"/>
</svg>

