<?xml version="1.0" encoding="UTF-8"?>
<svg width="512" height="512" enable-background="new 0 0 512 512" version="1.1" viewBox="0 0 64 64" xml:space="preserve" xmlns="http://www.w3.org/2000/svg"><g><path d="M17.784 18.375a.998.998 0 0 1-.867-.5 2.982 2.982 0 0 1 .725-3.844 1 1 0 0 1 1.248 1.562.994.994 0 0 0-.242 1.281 1 1 0 0 1-.864 1.501z" data-original="#000000"/><path d="M20.071 22.337a.998.998 0 0 1-.867-.5l-2.287-3.962a1 1 0 0 1 1.732-1l2.287 3.962a1 1 0 0 1-.865 1.5zM18.267 15.813a1 1 0 0 1-.625-1.781 22.984 22.984 0 0 1 5.976-3.45.999.999 0 1 1 .728 1.862 20.988 20.988 0 0 0-5.456 3.15.987.987 0 0 1-.623.219z" data-original="#000000"/><path d="M26.444 13.375a.998.998 0 0 1-.867-.5.995.995 0 0 0-1.23-.431 1 1 0 1 1-.73-1.862 2.982 2.982 0 0 1 3.691 1.293 1 1 0 0 1-.864 1.5z" data-original="#000000"/><path d="M28.732 17.337a.998.998 0 0 1-.867-.5l-2.288-3.962a1 1 0 0 1 1.732-1l2.288 3.962a1 1 0 0 1-.865 1.5zM37.556 13.375a1 1 0 0 1-.865-1.5 2.98 2.98 0 0 1 3.691-1.293 1 1 0 1 1-.73 1.862.996.996 0 0 0-1.23.431.998.998 0 0 1-.866.5z" data-original="#000000"/><path d="M35.268 17.337a1 1 0 0 1-.865-1.5l2.288-3.962a1 1 0 1 1 1.732 1l-2.288 3.962a.998.998 0 0 1-.867.5zM45.733 15.813a.994.994 0 0 1-.624-.219 20.972 20.972 0 0 0-5.456-3.15.999.999 0 1 1 .728-1.862 22.956 22.956 0 0 1 5.976 3.45 1.002 1.002 0 0 1-.624 1.781z" data-original="#000000"/><path d="M46.216 18.375a1 1 0 0 1-.865-1.5.994.994 0 0 0-.242-1.281.999.999 0 1 1 1.248-1.562 2.981 2.981 0 0 1 .725 3.844.998.998 0 0 1-.866.499z" data-original="#000000"/><path d="M43.929 22.337a1 1 0 0 1-.865-1.5l2.287-3.962a1 1 0 0 1 1.732 1l-2.287 3.962a1 1 0 0 1-.867.5zM53.75 29.7a.999.999 0 0 1-.987-.85.993.993 0 0 0-.988-.85 1 1 0 0 1 0-2 2.983 2.983 0 0 1 2.966 2.55 1 1 0 0 1-.991 1.15z" data-original="#000000"/><path d="M51.774 28h-4.575a1 1 0 0 1 0-2h4.575a1 1 0 0 1 0 2zM53.752 36.3a1 1 0 0 1-.99-1.15c.317-2.09.317-4.209 0-6.3a1 1 0 1 1 1.978-.3 22.99 22.99 0 0 1 0 6.899 1 1 0 0 1-.988.851z" data-original="#000000"/><path d="M51.774 38a1 1 0 0 1 0-2 .993.993 0 0 0 .988-.85 1 1 0 0 1 1.978.3A2.983 2.983 0 0 1 51.774 38z" data-original="#000000"/><path d="M51.774 38h-4.575a1 1 0 0 1 0-2h4.575a1 1 0 0 1 0 2zM45.734 50.187a1 1 0 0 1-.625-1.781.994.994 0 0 0 .242-1.281 1 1 0 1 1 1.732-1 2.982 2.982 0 0 1-.725 3.844.999.999 0 0 1-.624.218z" data-original="#000000"/><path d="M46.218 47.625a.998.998 0 0 1-.867-.5l-2.287-3.962a1 1 0 0 1 1.732-1l2.287 3.962a1 1 0 0 1-.865 1.5zM40.018 53.487a.999.999 0 0 1-.365-1.931 20.988 20.988 0 0 0 5.456-3.15 1 1 0 1 1 1.249 1.563 22.984 22.984 0 0 1-5.976 3.45c-.12.046-.243.068-.364.068z" data-original="#000000"/><path d="M39.278 53.628a2.98 2.98 0 0 1-2.587-1.503 1 1 0 1 1 1.732-1 .993.993 0 0 0 1.23.431 1 1 0 0 1 .73 1.862c-.363.142-.737.21-1.105.21z" data-original="#000000"/><path d="M37.558 52.625a.998.998 0 0 1-.867-.5l-2.288-3.962a1 1 0 0 1 1.732-1l2.288 3.962a1 1 0 0 1-.865 1.5zM24.722 53.628c-.368 0-.741-.068-1.104-.21a1 1 0 1 1 .73-1.862c.463.183.981 0 1.23-.431a1 1 0 1 1 1.732 1 2.983 2.983 0 0 1-2.588 1.503z" data-original="#000000"/><path d="M26.442 52.625a1 1 0 0 1-.865-1.5l2.288-3.962a1 1 0 1 1 1.732 1l-2.288 3.962a1 1 0 0 1-.867.5zM23.982 53.487a.995.995 0 0 1-.364-.069 22.956 22.956 0 0 1-5.976-3.45 1 1 0 1 1 1.249-1.563 20.972 20.972 0 0 0 5.456 3.15.999.999 0 0 1-.365 1.932z" data-original="#000000"/><path d="M18.266 50.187a.994.994 0 0 1-.624-.219 2.981 2.981 0 0 1-.725-3.844 1 1 0 1 1 1.732 1 .994.994 0 0 0 .242 1.281.999.999 0 0 1-.625 1.782z" data-original="#000000"/><path d="M17.782 47.625a1 1 0 0 1-.865-1.5l2.287-3.962a1 1 0 0 1 1.732 1l-2.287 3.962a1 1 0 0 1-.867.5zM12.226 38a2.983 2.983 0 0 1-2.966-2.55 1 1 0 1 1 1.978-.3c.075.493.49.85.988.85a1 1 0 0 1 0 2z" data-original="#000000"/><path d="M16.801 38h-4.575a1 1 0 0 1 0-2h4.575a1 1 0 0 1 0 2zM10.248 36.3a.999.999 0 0 1-.987-.85 22.99 22.99 0 0 1 0-6.899 1 1 0 0 1 1.978.3 20.986 20.986 0 0 0 0 6.3 1 1 0 0 1-.991 1.149z" data-original="#000000"/><path d="M10.25 29.7a1 1 0 0 1-.99-1.15A2.983 2.983 0 0 1 12.226 26a1 1 0 0 1 0 2 .993.993 0 0 0-.988.85 1 1 0 0 1-.988.85z" data-original="#000000"/><path d="m16.801 28h-4.575a1 1 0 0 1 0-2h4.575a1 1 0 0 1 0 2z" data-original="#000000"/><path d="M16.801 28a.999.999 0 0 1-.95-1.313 16.906 16.906 0 0 1 3.473-6.017 1 1 0 1 1 1.491 1.333 14.913 14.913 0 0 0-3.065 5.309.997.997 0 0 1-.949.688zM20.071 43.663a1 1 0 0 1-.746-.333 16.906 16.906 0 0 1-3.473-6.017.999.999 0 1 1 1.899-.625 14.913 14.913 0 0 0 3.065 5.309 1 1 0 0 1-.745 1.666zM35.27 17.337c-.067 0-.136-.007-.205-.021a14.93 14.93 0 0 0-6.13 0 1.001 1.001 0 0 1-.408-1.958c2.305-.48 4.642-.48 6.946 0a1 1 0 0 1-.203 1.979zM47.199 28a1 1 0 0 1-.95-.688 14.913 14.913 0 0 0-3.065-5.309 1 1 0 1 1 1.491-1.333 16.906 16.906 0 0 1 3.473 6.017.999.999 0 0 1-.949 1.313zM43.929 43.663a.999.999 0 0 1-.745-1.666 14.913 14.913 0 0 0 3.065-5.309.999.999 0 1 1 1.899.625 16.906 16.906 0 0 1-3.473 6.017 1 1 0 0 1-.746.333zM32 49.002c-1.161 0-2.321-.12-3.473-.36a1 1 0 0 1 .408-1.958 14.93 14.93 0 0 0 6.13 0 1 1 0 1 1 .408 1.958c-1.152.24-2.312.36-3.473.36zM32 41c-4.878 0-9-4.122-9-9s4.122-9 9-9 9 4.122 9 9-4.122 9-9 9zm0-16c-3.794 0-7 3.206-7 7s3.206 7 7 7 7-3.206 7-7-3.206-7-7-7z" data-original="#000000"/></g></svg>
