<?xml version="1.0" encoding="UTF-8"?>
<svg enable-background="new 0 0 512 512" version="1.1" viewBox="0 0 512 512" xml:space="preserve" xmlns="http://www.w3.org/2000/svg">
<path d="M474.644,74.27C449.391,45.616,414.358,29.836,376,29.836c-53.948,0-88.103,32.22-107.255,59.25
	c-4.969,7.014-9.196,14.047-12.745,20.665c-3.549-6.618-7.775-13.651-12.745-20.665c-19.152-27.03-53.307-59.25-107.255-59.25
	c-38.358,0-73.391,15.781-98.645,44.435C13.267,101.605,0,138.213,0,177.351c0,42.603,16.633,82.228,52.345,124.7
	c31.917,37.96,77.834,77.088,131.005,122.397c19.813,16.884,40.302,34.344,62.115,53.429l0.655,0.574
	c2.828,2.476,6.354,3.713,9.88,3.713s7.052-1.238,9.88-3.713l0.655-0.574c21.813-19.085,42.302-36.544,62.118-53.431
	c53.168-45.306,99.085-84.434,131.002-122.395C495.367,259.578,512,219.954,512,177.351
	C512,138.213,498.733,101.605,474.644,74.27z" data-original="#000000"/>
</svg>

