<?xml version="1.0" encoding="UTF-8"?>
<svg width="24" height="24" viewBox="0 0 24 24" fill="none" xmlns="http://www.w3.org/2000/svg">
<path d="M12 21.35L10.55 20.03C5.4 15.36 2 12.27 2 8.5C2 5.41 4.42 3 7.5 3C9.24 3 10.91 3.81 12 5.08C13.09 3.81 14.76 3 16.5 3C19.58 3 22 5.41 22 8.5C22 12.27 18.6 15.36 13.45 20.03L12 21.35ZM16.5 5C15.76 5 15.09 5.24 14.5 5.67C13.91 6.1 13.5 6.7 13.25 7.38L12 10.5L10.75 7.38C10.5 6.7 10.09 6.1 9.5 5.67C8.91 5.24 8.24 5 7.5 5C5.5 5 4 6.5 4 8.5C4 11.39 7.14 14.24 12 18.55C16.86 14.24 20 11.39 20 8.5C20 6.5 18.5 5 16.5 5Z" fill="currentColor"/>
</svg>

