<?xml version="1.0" encoding="UTF-8"?>
<svg enable-background="new 0 0 512 512" version="1.1" viewBox="0 0 512 512" xml:space="preserve" xmlns="http://www.w3.org/2000/svg"><path d="M506.555 208.064L263.859 30.367a12.5 12.5 0 0 0-15.716 0L5.445 208.064c-5.928 4.341-7.216 12.665-2.875 18.593s12.666 7.214 18.593 2.875L256 57.588l234.837 171.943a12.5 12.5 0 0 0 15.718-19.467z" data-original="#000000"/><path d="M442.246 232.543c-7.346 0-13.303 5.956-13.303 13.303v211.749H322.521V342.009c0-36.68-29.842-66.522-66.522-66.522s-66.522 29.842-66.522 66.522v115.587H83.055V245.847c0-7.347-5.957-13.303-13.303-13.303s-13.303 5.956-13.303 13.303v225.053c0 7.347 5.957 13.303 13.303 13.303h133.029c6.996 0 12.721-5.405 13.251-12.267.032-.311.052-.651.052-1.036V342.009c0-22.009 17.905-39.914 39.914-39.914s39.914 17.906 39.914 39.914v128.89c0 .383.02.717.052 1.024.524 6.867 6.251 12.275 13.251 12.275h133.029c7.347 0 13.303-5.956 13.303-13.303V245.847c-.001-7.348-5.957-13.304-13.304-13.304z" data-original="#000000"/></svg>

