<?xml version="1.0" encoding="UTF-8"?>
<svg class="" width="512" height="512" enable-background="new 0 0 512 512" version="1.1" viewBox="0 0 60.123 60.123" xml:space="preserve" xmlns="http://www.w3.org/2000/svg"><g><path class="" d="m57.124 51.893h-40.204a3 3 0 1 1 0-6h40.203a3 3 0 0 1 1e-3 6zm0-18.831h-40.204a3 3 0 1 1 0-6h40.203a3 3 0 0 1 1e-3 6zm0-18.831h-40.204a3 3 0 1 1 0-6h40.203a3 3 0 0 1 1e-3 6z" data-original="#000000"/><circle class="" cx="4.029" cy="11.463" r="4.029" data-original="#000000"/><circle class="" cx="4.029" cy="30.062" r="4.029" data-original="#000000"/><circle class="" cx="4.029" cy="48.661" r="4.029" data-original="#000000"/></g></svg>
