<?xml version="1.0" encoding="UTF-8"?>
<svg class="" width="512" height="512" enable-background="new 0 0 512 512" version="1.1" viewBox="0 0 682.67 682.67" xml:space="preserve" xmlns="http://www.w3.org/2000/svg"><defs><clipPath id="a"><path d="M0 512h512V0H0Z" fill="#000" data-original="#000000"/></clipPath></defs><g transform="matrix(1.3333 0 0 -1.3333 0 682.67)" clip-path="url(#a)" fill="none" stroke="#000" stroke-linecap="round" stroke-linejoin="round" stroke-miterlimit="10" stroke-width="30"><path class="" transform="translate(256 15)" d="M0 0c-60 90-165 212-165 317 0 90.981 74.019 165 165 165s165-74.019 165-165C165 212 60 90 0 0Z" data-original="#000000"/><path class="" transform="translate(256 257)" d="M0 0c-41.353 0-75 33.647-75 75s33.647 75 75 75 75-33.647 75-75S41.353 0 0 0Z" data-original="#000000"/></g></svg>
