<?xml version="1.0" encoding="UTF-8"?>
<svg class="" enable-background="new 0 0 512 512" version="1.1" viewBox="0 0 512 512" xml:space="preserve" xmlns="http://www.w3.org/2000/svg"><g><path class="" d="M255.15 468.625H63.787c-11.737 0-21.262-9.526-21.262-21.262V64.638c0-11.737 9.526-21.262 21.262-21.262H255.15c11.758 0 21.262-9.504 21.262-21.262S266.908.85 255.15.85H63.787C28.619.85 0 29.47 0 64.638v382.724c0 35.168 28.619 63.787 63.787 63.787H255.15c11.758 0 21.262-9.504 21.262-21.262 0-11.758-9.504-21.262-21.262-21.262z" data-original="#000000"/><path class="" d="m505.66 240.86-129.28-127.58c-8.335-8.25-21.815-8.143-30.065 0.213s-8.165 21.815 0.213 30.065l92.385 91.173h-247.56c-11.758 0-21.262 9.504-21.262 21.262s9.504 21.263 21.262 21.263h247.56l-92.385 91.173c-8.377 8.25-8.441 21.709-0.213 30.065a21.255 21.255 0 0 0 15.139 6.336c5.401 0 10.801-2.041 14.926-6.124l129.28-127.58a21.303 21.303 0 0 0 6.336-15.139c0-5.696-2.275-11.118-6.336-15.137z" data-original="#000000"/></g></svg>
