<?xml version="1.0" encoding="UTF-8"?>
<svg width="24" height="24" viewBox="0 0 24 24" fill="none" xmlns="http://www.w3.org/2000/svg">
<path d="M12 2C11.45 2 11 2.45 11 3V4C11 4.55 11.45 5 12 5C12.55 5 13 4.55 13 4V3C13 2.45 12.55 2 12 2ZM8 6C6.34 6 5 7.34 5 9V15C5 17.76 7.24 20 10 20H14C16.76 20 19 17.76 19 15V9C19 7.34 17.66 6 16 6H8ZM8 8H16C16.55 8 17 8.45 17 9V15C17 16.66 15.66 18 14 18H10C8.34 18 7 16.66 7 15V9C7 8.45 7.45 8 8 8ZM10 10V12H14V10H10ZM10 14V16H14V14H10Z" fill="currentColor"/>
</svg>

