<?xml version="1.0" encoding="UTF-8"?>
<svg width="24" height="24" viewBox="0 0 24 24" fill="none" xmlns="http://www.w3.org/2000/svg">
<path d="M20 8C20 6.9 19.1 6 18 6H16C14.9 6 14 6.9 14 8V9H10V8C10 6.9 9.1 6 8 6H6C4.9 6 4 6.9 4 8V10C4 11.1 4.9 12 6 12H8C9.1 12 10 11.1 10 10V11H14V10C14 11.1 14.9 12 16 12H18C19.1 12 20 11.1 20 10V8ZM8 10H6V8H8V10ZM18 10H16V8H18V10ZM19 14H5C3.9 14 3 14.9 3 16V18C3 19.1 3.9 20 5 20H19C20.1 20 21 19.1 21 18V16C21 14.9 20.1 14 19 14ZM19 18H5V16H19V18Z" fill="currentColor"/>
</svg>

