<?xml version="1.0" encoding="UTF-8"?>
<svg width="24" height="24" viewBox="0 0 24 24" fill="none" xmlns="http://www.w3.org/2000/svg">
<path d="M18 7C16.9 7 16 7.9 16 9C16 9.5 16.2 9.97 16.5 10.33C15.84 10.12 15.14 10 14.41 10C12.04 10 9.96 11.19 8.71 13C7.46 11.19 5.38 10 3.01 10C2.28 10 1.58 10.12 0.92 10.33C1.22 9.97 1.42 9.5 1.42 9C1.42 7.9 0.52 7 -0.58 7C-0.81 7 -1 7.19 -1 7.42V18.58C-1 18.81 -0.81 19 -0.58 19C0.52 19 1.42 18.1 1.42 17C1.42 16.5 1.22 16.03 0.92 15.67C1.58 15.88 2.28 16 3.01 16C5.38 16 7.46 14.81 8.71 13C9.96 14.81 12.04 16 14.41 16C15.14 16 15.84 15.88 16.5 15.67C16.2 16.03 16 16.5 16 17C16 18.1 16.9 19 18 19C18.23 19 18.42 18.81 18.42 18.58V7.42C18.42 7.19 18.23 7 18 7Z" fill="currentColor"/>
</svg>

