<?xml version="1.0" encoding="UTF-8"?>
<svg width="24" height="24" viewBox="0 0 24 24" fill="none" xmlns="http://www.w3.org/2000/svg">
<path d="M19 9C19 7.34 17.66 6 16 6H8C6.34 6 5 7.34 5 9V15C5 17.76 7.24 20 10 20H14C16.76 20 19 17.76 19 15V9ZM17 9V15C17 16.66 15.66 18 14 18H10C8.34 18 7 16.66 7 15V9C7 8.45 7.45 8 8 8H16C16.55 8 17 8.45 17 9ZM9 10C8.45 10 8 10.45 8 11C8 11.55 8.45 12 9 12C9.55 12 10 11.55 10 11C10 10.45 9.55 10 9 10ZM15 13C14.45 13 14 13.45 14 14C14 14.55 14.45 15 15 15C15.55 15 16 14.55 16 14C16 13.45 15.55 13 15 13Z" fill="currentColor"/>
</svg>

