<?xml version="1.0" encoding="UTF-8"?>
<svg class="" width="512" height="512" enable-background="new 0 0 512 512" version="1.1" viewBox="0 0 612.01 612.01" xml:space="preserve" xmlns="http://www.w3.org/2000/svg"><path d="m606.21 578.71-158.01-155.49c41.378-44.956 66.802-104.41 66.802-169.84-0.02-139.95-115.3-253.39-257.51-253.39s-257.49 113.44-257.49 253.39 115.28 253.39 257.49 253.39c61.445 0 117.8-21.253 162.07-56.586l158.62 156.1c7.729 7.614 20.277 7.614 28.006 0a19.291 19.291 0 0 0 0.018-27.585zm-348.72-110.91c-120.33 0-217.87-95.993-217.87-214.41s97.543-214.41 217.87-214.41c120.33 0 217.87 95.993 217.87 214.41s-97.542 214.41-217.87 214.41z" data-original="#000000"/></svg>
