<?xml version="1.0" encoding="UTF-8"?>
<svg width="24" height="24" viewBox="0 0 24 24" fill="none" xmlns="http://www.w3.org/2000/svg">
<path d="M18 4C16.34 4 15 5.34 15 7V8H9V7C9 5.34 7.66 4 6 4C4.34 4 3 5.34 3 7V17C3 18.66 4.34 20 6 20C7.66 20 9 18.66 9 17V16H15V17C15 18.66 16.34 20 18 20C19.66 20 21 18.66 21 17V7C21 5.34 19.66 4 18 4ZM7 17C7 17.55 6.55 18 6 18C5.45 18 5 17.55 5 17V7C5 6.45 5.45 6 6 6C6.55 6 7 6.45 7 7V17ZM15 14H9V10H15V14ZM19 17C19 17.55 18.55 18 18 18C17.45 18 17 17.55 17 17V7C17 6.45 17.45 6 18 6C18.55 6 19 6.45 19 7V17Z" fill="currentColor"/>
</svg>

