<?xml version="1.0" encoding="UTF-8"?>
<svg width="24" height="24" viewBox="0 0 24 24" fill="none" xmlns="http://www.w3.org/2000/svg">
<path d="M12 2C11.45 2 11 2.45 11 3C11 3.55 11.45 4 12 4C12.55 4 13 3.55 13 3C13 2.45 12.55 2 12 2ZM9 3C8.45 3 8 3.45 8 4C8 4.55 8.45 5 9 5C9.55 5 10 4.55 10 4C10 3.45 9.55 3 9 3ZM15 3C14.45 3 14 3.45 14 4C14 4.55 14.45 5 15 5C15.55 5 16 4.55 16 4C16 3.45 15.55 3 15 3ZM12 6C8.13 6 5 9.13 5 13C5 16.87 8.13 20 12 20C15.87 20 19 16.87 19 13C19 9.13 15.87 6 12 6ZM12 8C14.76 8 17 10.24 17 13C17 15.76 14.76 18 12 18C9.24 18 7 15.76 7 13C7 10.24 9.24 8 12 8ZM10 10V12H14V10H10ZM10 14V16H14V14H10Z" fill="currentColor"/>
</svg>

