<?xml version="1.0" encoding="UTF-8"?>
<svg width="24" height="24" viewBox="0 0 24 24" fill="none" xmlns="http://www.w3.org/2000/svg">
<path d="M12 2.69L17.66 8.35C18.78 9.47 19.5 10.83 19.84 12.28C20.18 13.73 20.06 15.23 19.5 16.61C18.94 17.99 17.96 19.19 16.69 20.04C15.42 20.89 13.93 21.35 12.4 21.35C10.87 21.35 9.38 20.89 8.11 20.04C6.84 19.19 5.86 17.99 5.3 16.61C4.74 15.23 4.62 13.73 4.96 12.28C5.3 10.83 6.02 9.47 7.14 8.35L12 2.69ZM12 5.5L8.46 9.88C7.63 10.71 7.08 11.76 6.86 12.9C6.64 14.04 6.76 15.22 7.2 16.29C7.64 17.36 8.38 18.28 9.33 18.94C10.28 19.6 11.4 19.96 12.54 19.96C13.68 19.96 14.8 19.6 15.75 18.94C16.7 18.28 17.44 17.36 17.88 16.29C18.32 15.22 18.44 14.04 18.22 12.9C18 11.76 17.45 10.71 16.62 9.88L12 5.5Z" fill="currentColor"/>
</svg>

